<svg width="32" height="30" viewBox="0 0 32 30" fill="none" xmlns="http://www.w3.org/2000/svg">
<path d="M4.93398 15.8887C7.1883 15.8887 8.7479 14.8797 9.5844 13.5296C9.64112 14.2828 9.74036 14.9223 9.86797 15.4766H15.1848V14.9507C14.7736 14.6381 14.6035 13.2027 14.6035 12.0373V5.88365C14.6035 2.25966 12.2782 0 7.65618 0C3.28932 0 0.510412 2.13176 0.382809 5.24412H5.68542C5.72796 4.10718 6.49358 3.36818 7.74125 3.36818C8.8755 3.36818 9.47098 4.02191 9.47098 4.81777C9.47098 5.68469 8.93221 6.03998 7.57111 6.22473L4.84891 6.59424C1.8148 7.00638 0 8.32806 0 11.2557C0 14.1407 2.09836 15.8887 4.93398 15.8887ZM5.2459 10.7867C5.2459 9.76345 5.96899 9.26604 7.14577 9.02444L8.05317 8.83969C8.23748 8.79705 8.4218 8.75442 8.60612 8.72599C9.22995 8.59809 9.44262 8.25701 9.44262 7.68854V7.24797C9.44262 6.25315 10.2082 5.52836 11.1724 5.52836C12.1365 5.52836 12.9021 6.25315 12.9021 7.24797C12.9021 8.25701 12.1223 8.99601 11.1724 8.99601H10.5627C10.0239 8.99601 9.74036 9.18077 9.64112 9.67818L9.5844 9.9482C9.31502 11.3836 8.46433 12.3216 7.03234 12.3216C5.99734 12.3216 5.2459 11.7531 5.2459 10.7867Z" fill="currentColor"/>
<path d="M21.7492 15.8887C24.0035 15.8887 25.5631 14.8797 26.3996 13.5296C26.4564 14.2828 26.5556 14.9223 26.6832 15.4766H32V14.9507C31.5888 14.6381 31.4187 13.2027 31.4187 12.0373V5.88365C31.4187 2.25966 29.0935 0 24.4714 0C20.1046 0 17.3257 2.13176 17.1981 5.24412H22.5007C22.5432 4.10718 23.3088 3.36818 24.5565 3.36818C25.6907 3.36818 26.2862 4.02191 26.2862 4.81777C26.2862 5.68469 25.7475 6.03998 24.3864 6.22473L21.6642 6.59424C18.63 7.00638 16.8152 8.32806 16.8152 11.2557C16.8152 14.1407 18.9136 15.8887 21.7492 15.8887ZM22.0611 10.7867C22.0611 9.76345 22.7842 9.26604 23.961 9.02444L24.8684 8.83969C25.0527 8.79705 25.237 8.75442 25.4214 8.72599C26.0452 8.59809 26.2579 8.25701 26.2579 7.68854V7.24797C26.2579 6.25315 27.0235 5.52836 27.9876 5.52836C28.9517 5.52836 29.7173 6.25315 29.7173 7.24797C29.7173 8.25701 28.9375 8.99601 27.9876 8.99601H27.3779C26.8392 8.99601 26.5556 9.18077 26.4564 9.67818L26.3996 9.9482C26.1303 11.3836 25.2796 12.3216 23.8476 12.3216C22.8126 12.3216 22.0611 11.7531 22.0611 10.7867Z" fill="currentColor"/>
<path d="M22.2788 25.1725C21.4673 25.5987 20.5404 25.9325 19.5021 26.1778C18.4639 26.4231 17.3222 26.5477 16.0771 26.5477C14.832 26.5477 13.6863 26.4231 12.652 26.1778C11.6137 25.9325 10.6869 25.5947 9.8674 25.1725C9.04793 24.7463 8.33189 24.2677 7.72326 23.7329L6.64522 26.0974C7.25385 26.6724 8.02956 27.2233 8.97235 27.75C9.91514 28.2768 10.9892 28.7111 12.1945 29.0448C13.3999 29.3826 14.6967 29.5475 16.0771 29.5475C17.4614 29.5475 18.7503 29.3786 19.9516 29.0448C21.153 28.7071 22.2231 28.2768 23.1659 27.75C24.1087 27.2233 24.8923 26.6724 25.5129 26.0974L24.415 23.7329C23.8024 24.2677 23.0903 24.7503 22.2788 25.1725Z" fill="currentColor"/>
</svg>